inDegrees=no
num_controls=7
num_derivatives=13
num_iterations=164
num_multipliers=7
num_parameters=0
num_slacks=7
num_states=26
objective=0.544335
objective_accelerations=0.061731
objective_balance=0.003349
objective_effort=0.046328
objective_height=0.424137
objective_ligament=0.008791
solver_duration=1672.073399
status=Solve_Succeeded
success=true
DataType=double
version=3
OpenSimVersion=4.5
endheader
time	/jointset/ground_pelvis/pelvis_tilt/value	/jointset/ground_pelvis/pelvis_tx/value	/jointset/ground_pelvis/pelvis_ty/value	/jointset/hip_r/hip_flexion_r/value	/jointset/hip_r/hip_adduction_r/value	/jointset/hip_r/hip_rotation_r/value	/jointset/back/lumbar_extension/value	/jointset/patellofemoral_r/patellar_flexion_r/value	/jointset/knee_r/knee_flexion_r/value	/jointset/knee_r/knee_adduction_r/value	/jointset/knee_r/knee_rotation_r/value	/jointset/ankle_r/ankle_angle_r/value	/jointset/subtalar_r/subtalar_angle_r/value	/jointset/ground_pelvis/pelvis_tilt/speed	/jointset/ground_pelvis/pelvis_tx/speed	/jointset/ground_pelvis/pelvis_ty/speed	/jointset/hip_r/hip_flexion_r/speed	/jointset/hip_r/hip_adduction_r/speed	/jointset/hip_r/hip_rotation_r/speed	/jointset/back/lumbar_extension/speed	/jointset/patellofemoral_r/patellar_flexion_r/speed	/jointset/knee_r/knee_flexion_r/speed	/jointset/knee_r/knee_adduction_r/speed	/jointset/knee_r/knee_rotation_r/speed	/jointset/ankle_r/ankle_angle_r/speed	/jointset/subtalar_r/subtalar_angle_r/speed	/forceset/tau_hip_flexion_r	/forceset/tau_hip_adduction_r	/forceset/tau_hip_rotation_r	/forceset/tau_knee_flexion_r	/forceset/tau_ankle_angle_r	/forceset/tau_subtalar_angle_r	/forceset/tau_lumbar_extension	lambda_cid13_p0	lambda_cid14_p0	lambda_cid14_p1	lambda_cid14_p2	lambda_cid14_p3	lambda_cid14_p4	lambda_cid14_p5	/jointset/ground_pelvis/pelvis_tilt/accel	/jointset/ground_pelvis/pelvis_tx/accel	/jointset/ground_pelvis/pelvis_ty/accel	/jointset/hip_r/hip_flexion_r/accel	/jointset/hip_r/hip_adduction_r/accel	/jointset/hip_r/hip_rotation_r/accel	/jointset/back/lumbar_extension/accel	/jointset/patellofemoral_r/patellar_flexion_r/accel	/jointset/knee_r/knee_flexion_r/accel	/jointset/knee_r/knee_adduction_r/accel	/jointset/knee_r/knee_rotation_r/accel	/jointset/ankle_r/ankle_angle_r/accel	/jointset/subtalar_r/subtalar_angle_r/accel	gamma_cid13_p0	gamma_cid14_p0	gamma_cid14_p1	gamma_cid14_p2	gamma_cid14_p3	gamma_cid14_p4	gamma_cid14_p5
1.5	-0.1992560174945205	0.01648503743916434	0.8210460256275545	0.9389296909985413	-0.2176799514008984	-0.1341500894956454	-0.3051276895850769	0.8287872715293082	0.8287872715294483	-0.02089397297061126	0.1745272355397881	0.2713468535522298	0.0758048930887512	0.4620038682880091	0.200249663448561	0.5458333428112521	-2.181094953588968	0.007235362560150513	-0.2219164721739264	0.7004666709290509	-2.239412918926451	-2.239412918926499	0.4496153335324256	-3.121598984057094e-05	-0.6312305220306965	-0.1862079500101098	-0.1261932239055202	-0.01944658440718672	0.01144149345220269	-0.3489770924653845	0.08850674926973136	-0.004321712174536485	0.1639459791211639	-23.45492498788323	-11.90469233244732	-1.324169312132531	-2.341211893453629	-2.806873265534153	-645.4986826405792	60.2357110619008	0.400125342254287	0.592114021931613	-0.7009573169132668	-1.183727400637596	-0.1896525806928913	-0.8313365093619455	1.69103485114293	-1.318012808796486	-1.318012808796485	0.4148271475566211	-0.04190783253634974	-0.7264660185956691	-0.2939831796406789	1.575775547939151e-07	6.61787005998891e-09	-2.181319254052247e-06	9.063011095796098e-08	2.438887887137322e-07	1.510295493175891e-07	-1.221687892526245e-06
1.51	-0.1946165046786872	0.0185168659663189	0.8264681014431234	0.917062144812863	-0.2176176244785629	-0.1364130365261895	-0.298039784890436	0.8063302055756078	0.8063302055756552	-0.01637760405650285	0.174527213053546	0.2649990384903835	0.0739277906417203	0.4658221055034759	0.2060836733378565	0.5384597842396102	-2.192110083461576	0.005230843311733782	-0.2306547252347968	0.7170022086252523	-2.251675846129439	-2.25167584612944	0.453658157590874	1.205106388429477e-05	-0.6382304733535035	-0.1891687019765596	-0.11866357905876	-0.02148429112365205	0.01121872161819319	-0.34467433410335	0.09131048473868011	-0.005274035015838062	0.1571346897760626	-24.89175414768131	-10.74730948448085	-1.382439534019297	-2.506313250513097	-3.176577337785942	-640.0078634448063	60.17238435830122	0.3611828031496447	0.5742515061141805	-0.7738360814293417	-1.014778546970098	-0.2059915053167158	-0.8921704892667927	1.618004322755346	-1.131801630930405	-1.131801630923383	0.3985817943606359	0.02514724872127235	-0.6713806895588746	-0.2909910172635936	1.618411438114796e-07	-2.448623243179695e-08	-2.433825296986135e-06	-2.024876981716474e-07	2.88612226579571e-07	1.320525294420538e-07	-1.276856807238621e-06
1.52	-0.1899411075123078	0.02060607599910354	0.8318127854821482	0.8950935727751793	-0.2175753707303913	-0.1387627862443056	-0.2907898866000538	0.7837602365589011	0.7837602365588566	-0.01182089254993483	0.1745271638927162	0.2585842997152221	0.07202230671260162	0.4691807383972129	0.2117259645745775	0.5303549875023817	-2.201300123990093	0.003220727727289209	-0.2392770096883546	0.7328653900773178	-2.261993531527643	-2.261993531527597	0.4576838520241895	-3.655090661617974e-05	-0.644615264693737	-0.1918842464276677	-0.1111339342119969	-0.02352199784011315	0.01099594978417965	-0.3403715757413153	0.09411422020762991	-0.006226357857133867	0.1503234004309634	-26.30956127677612	-9.596114751927463	-1.441301722522285	-2.671880625124415	-3.54055546800236	-634.612687089027	60.14906404648222	0.3082044779082979	0.5537702914167699	-0.8472049500305734	-0.818709531819553	-0.1907718478984588	-0.8081427878994106	1.556563602315723	-0.9289644478394812	-0.92896444783948	0.4114012225300547	-0.06028163738141191	-0.6034340220809604	-0.2449416765723275	1.648340259392635e-07	-9.065674684320565e-08	-2.86141303692352e-06	-7.900048346732083e-07	3.759570337202832e-07	7.444119881653178e-08	-1.325869185125337e-06
1.53	-0.1852345097011291	0.02275065640808566	0.8370728605483936	0.8730423901237636	-0.2175528366381244	-0.1412004489103941	-0.2833848653021976	0.7610967906312286	0.7610967906312471	-0.007226083947122955	0.1745275126134522	0.2521089029346212	0.07009149174582179	0.4720571386819792	0.2171481911678137	0.5215474814126462	-2.208620873345423	0.001285750100088253	-0.24819525641063	0.7480086113183673	-2.270361992197999	-2.270361992198032	0.4613116671910565	7.229406541433837e-05	-0.6503621402500612	-0.1942411574687029	-0.1035761407377737	-0.02523581189721067	0.01067197071211239	-0.3362124728757216	0.09699048654475757	-0.007512611477146212	0.1434856921332409	-27.70511814922131	-8.461123483707844	-1.675282508109143	-2.77839908448447	-3.828359506737588	-629.5210235685447	59.81836372170177	0.2650864114214861	0.5302758534142564	-0.9144204959918816	-0.6414541827156756	-0.1955817673527329	-0.9245936524473602	1.473662658643393	-0.7407710765358022	-0.7407710765477314	0.3428939832649091	0.04092838453129325	-0.5449024617117392	-0.2262829158589951	1.664767819966555e-07	-1.940853239192132e-07	-3.475025079927116e-06	-1.690321256507465e-06	5.085870457155481e-07	-2.421908698085066e-08	-1.368340242634789e-06
1.54	-0.1805016021655707	0.02494822448502758	0.8422414811422322	0.8509274606697296	-0.2175497965315739	-0.1437254796513161	-0.2758323195372021	0.7383596632568705	0.7383596632569539	-0.002594112728742139	0.1745278419479175	0.2455791197705964	0.06813806424903365	0.4744426832731733	0.2223234981665368	0.5120640930210377	-2.214049484513793	-0.0006780694159866597	-0.256750624655135	0.7623702835051698	-2.276729820864442	-2.276729820864555	0.4651163751379191	-4.042816111511046e-05	-0.6554925413785284	-0.1964067524293331	-0.09601834726354719	-0.02694962595430473	0.01034799164005971	-0.3320533700101272	0.09986675288188621	-0.008798865097153684	0.1366479838355205	-29.07620803165217	-7.331327403499538	-1.910415902845754	-2.884453416796755	-4.104551569142311	-624.5156354830541	59.488401731056	0.2100333391938572	0.5043863725141671	-0.982381410405138	-0.4402818944277532	-0.1965402256732499	-0.7355670923453271	1.400253791466284	-0.5288380470569713	-0.5288380470569626	0.4467797785291995	-0.1045950770934078	-0.4801391365095411	-0.2066784604913096	1.581880460320212e-07	-3.196292442956749e-07	-4.064671433680391e-06	-2.787138156180627e-06	6.52902617433756e-07	-1.584009140253939e-07	-1.288670982866144e-06
1.55	-0.1757473176346309	0.02719626243145619	0.8473120036204722	0.8287678712316788	-0.2175656145612494	-0.1463379349106583	-0.2681400821521224	0.715568901765215	0.7155689017652872	0.002072954721195167	0.1745279200064154	0.2390014857630944	0.06616529653172577	0.4763373613021523	0.2272378293947955	0.5019399054646257	-2.217553567818864	-0.002475247013855692	-0.265706256141387	0.7759393025013708	-2.281076082817464	-2.281076082817557	0.4682989834641852	4.599314270694943e-05	-0.6599188864183066	-0.198095623223564	-0.08860360785585072	-0.02895860916674843	0.00977886188901155	-0.3279529498283844	0.1025774107081662	-0.009685418891653783	0.1299565183294955	-30.42173787221845	-6.257993217499568	-1.954147591294122	-3.052664451236677	-4.370816146395327	-619.9391569528593	59.53911772748052	0.1676137895895584	0.4781969068056286	-1.042598161087444	-0.258306440451713	-0.1709840336644766	-0.9706674644779288	1.314542302266198	-0.335586570987351	-0.3355865709845127	0.2533192241512943	0.06282889841063538	-0.406411313559555	-0.1436664290249795	1.384565040420094e-07	-4.706538863009195e-07	-4.62670514547134e-06	-4.110357780320339e-06	8.106819862240498e-07	-3.335097342460114e-07	-1.068274835798828e-06
